REM DIRINDEX 1\2,1\3,1\4
REM DIRNAME folder01,folder02,folder03,folder04
TITLE ""
FILE "Track36.mp3" MP3
  TRACK 01 AUDIO
    TITLE "0:"
    INDEX 01 00:00:00
  TRACK 02 AUDIO
    TITLE "4:cjc153_2252"
    INDEX 01 00:00:07
  TRACK 03 AUDIO
    TITLE "0:"
    INDEX 01 00:02:08
  TRACK 04 AUDIO
    TITLE "2:cjc153_2253"
    INDEX 01 00:02:63
  TRACK 05 AUDIO
    TITLE "0:"
    INDEX 01 00:03:74
  TRACK 06 AUDIO
    TITLE "3:cjc153_2254"
    INDEX 01 00:04:31
  TRACK 07 AUDIO
    TITLE "0:"
    INDEX 01 00:05:44
  TRACK 08 AUDIO
    TITLE "2:cjc153_2255"
    INDEX 01 00:06:16
  TRACK 09 AUDIO
    TITLE "0:"
    INDEX 01 00:07:41
  TRACK 10 AUDIO
    TITLE "3:cjc153_2256"
    INDEX 01 00:08:01
  TRACK 11 AUDIO
    TITLE "0:"
    INDEX 01 00:09:32
  TRACK 12 AUDIO
    TITLE "2:cjc153_2257"
    INDEX 01 00:09:73
  TRACK 13 AUDIO
    TITLE "0:"
    INDEX 01 00:11:25
  TRACK 14 AUDIO
    TITLE "3:cjc153_2258"
    INDEX 01 00:11:58
  TRACK 15 AUDIO
    TITLE "0:"
    INDEX 01 00:13:16
  TRACK 16 AUDIO
    TITLE "2:cjc153_2259"
    INDEX 01 00:13:61
  TRACK 17 AUDIO
    TITLE "0:"
    INDEX 01 00:15:05
  TRACK 18 AUDIO
    TITLE "3:cjc153_2260"
    INDEX 01 00:15:38
  TRACK 19 AUDIO
    TITLE "0:"
    INDEX 01 00:16:65
  TRACK 20 AUDIO
    TITLE "2:cjc153_2261"
    INDEX 01 00:17:33
  TRACK 21 AUDIO
    TITLE "0:"
    INDEX 01 00:18:44
  TRACK 22 AUDIO
    TITLE "3:cjc153_2262"
    INDEX 01 00:19:03
  TRACK 23 AUDIO
    TITLE "0:"
    INDEX 01 00:20:20
  TRACK 24 AUDIO
    TITLE "2:cjc153_2263"
    INDEX 01 00:20:63
  TRACK 25 AUDIO
    TITLE "0:"
    INDEX 01 00:21:66
  TRACK 26 AUDIO
    TITLE "3:cjc153_2264"
    INDEX 01 00:22:23
  TRACK 27 AUDIO
    TITLE "0:"
    INDEX 01 00:23:32
  TRACK 28 AUDIO
    TITLE "2:cjc153_2265"
    INDEX 01 00:24:02
  TRACK 29 AUDIO
    TITLE "0:"
    INDEX 01 00:25:11
  TRACK 30 AUDIO
    TITLE "3:cjc153_2266"
    INDEX 01 00:25:41
  TRACK 31 AUDIO
    TITLE "0:"
    INDEX 01 00:26:56
  TRACK 32 AUDIO
    TITLE "2:cjc153_2267"
    INDEX 01 00:27:26
  TRACK 33 AUDIO
    TITLE "0:"
    INDEX 01 00:28:27
  TRACK 34 AUDIO
    TITLE "3:cjc153_2268"
    INDEX 01 00:28:60
  TRACK 35 AUDIO
    TITLE "0:"
    INDEX 01 00:29:68
  TRACK 36 AUDIO
    TITLE "2:cjc153_2269"
    INDEX 01 00:30:42
  TRACK 37 AUDIO
    TITLE "0:"
    INDEX 01 00:31:49
  TRACK 38 AUDIO
    TITLE "3:cjc153_2270"
    INDEX 01 00:32:05
  TRACK 39 AUDIO
    TITLE "0:"
    INDEX 01 00:33:24
  TRACK 40 AUDIO
    TITLE "2:cjc153_2271"
    INDEX 01 00:33:69
  TRACK 41 AUDIO
    TITLE "0:"
    INDEX 01 00:35:19
  TRACK 42 AUDIO
    TITLE "3:cjc153_2272"
    INDEX 01 00:35:51
  TRACK 43 AUDIO
    TITLE "0:"
    INDEX 01 00:37:05
  TRACK 44 AUDIO
    TITLE "2:cjc153_2273"
    INDEX 01 00:37:52
  TRACK 45 AUDIO
    TITLE "0:"
    INDEX 01 00:38:61
  TRACK 46 AUDIO
    TITLE "3:cjc153_2274"
    INDEX 01 00:39:19
  TRACK 47 AUDIO
    TITLE "0:"
    INDEX 01 00:40:36
  TRACK 48 AUDIO
    TITLE "2:cjc153_2275"
    INDEX 01 00:41:04
  TRACK 49 AUDIO
    TITLE "0:"
    INDEX 01 00:42:02
  TRACK 50 AUDIO
    TITLE "3:cjc153_2276"
    INDEX 01 00:42:33
  TRACK 51 AUDIO
    TITLE "0:"
    INDEX 01 00:43:39
  TRACK 52 AUDIO
    TITLE "2:cjc153_2277"
    INDEX 01 00:44:05
  TRACK 53 AUDIO
    TITLE "0:"
    INDEX 01 00:45:00
  TRACK 54 AUDIO
    TITLE "3:cjc153_2278"
    INDEX 01 00:45:33
  TRACK 55 AUDIO
    TITLE "0:"
    INDEX 01 00:46:35
  TRACK 56 AUDIO
    TITLE "2:cjc153_2279"
    INDEX 01 00:47:03
  TRACK 57 AUDIO
    TITLE "0:"
    INDEX 01 00:48:14
  TRACK 58 AUDIO
    TITLE "3:cjc153_2280"
    INDEX 01 00:48:46
  TRACK 59 AUDIO
    TITLE "0:"
    INDEX 01 00:49:59
  TRACK 60 AUDIO
    TITLE "2:cjc153_2281"
    INDEX 01 00:50:31
  TRACK 61 AUDIO
    TITLE "0:"
    INDEX 01 00:51:32
  TRACK 62 AUDIO
    TITLE "3:cjc153_2282"
    INDEX 01 00:51:63
  TRACK 63 AUDIO
    TITLE "0:"
    INDEX 01 00:52:71
  TRACK 64 AUDIO
    TITLE "2:cjc153_2283"
    INDEX 01 00:53:39
  TRACK 65 AUDIO
    TITLE "0:"
    INDEX 01 00:54:40
  TRACK 66 AUDIO
    TITLE "3:cjc153_2284"
    INDEX 01 00:54:66
  TRACK 67 AUDIO
    TITLE "0:"
    INDEX 01 00:56:02
  TRACK 68 AUDIO
    TITLE "2:cjc153_2285"
    INDEX 01 00:56:45
  TRACK 69 AUDIO
    TITLE "0:"
    INDEX 01 00:57:64
  TRACK 70 AUDIO
    TITLE "3:cjc153_2286"
    INDEX 01 00:58:24
  TRACK 71 AUDIO
    TITLE "0:"
    INDEX 01 00:59:49
  TRACK 72 AUDIO
    TITLE "2:cjc153_2287"
    INDEX 01 01:00:19
  TRACK 73 AUDIO
    TITLE "0:"
    INDEX 01 01:01:07
  TRACK 74 AUDIO
    TITLE "3:cjc153_2288"
    INDEX 01 01:01:40
  TRACK 75 AUDIO
    TITLE "0:"
    INDEX 01 01:02:32
  TRACK 76 AUDIO
    TITLE "2:cjc153_2289"
    INDEX 01 01:03:04
  TRACK 77 AUDIO
    TITLE "0:"
    INDEX 01 01:04:09
  TRACK 78 AUDIO
    TITLE "3:cjc153_2290"
    INDEX 01 01:04:41
  TRACK 79 AUDIO
    TITLE "0:"
    INDEX 01 01:05:46
  TRACK 80 AUDIO
    TITLE "2:cjc153_2291"
    INDEX 01 01:06:18
  TRACK 81 AUDIO
    TITLE "0:"
    INDEX 01 01:07:41
  TRACK 82 AUDIO
    TITLE "3:cjc153_2292"
    INDEX 01 01:07:64
  TRACK 83 AUDIO
    TITLE "0:"
    INDEX 01 01:09:16
  TRACK 84 AUDIO
    TITLE "2:cjc153_2293"
    INDEX 01 01:09:59
  TRACK 85 AUDIO
    TITLE "0:"
    INDEX 01 01:10:65
  TRACK 86 AUDIO
    TITLE "3:cjc153_2294"
    INDEX 01 01:11:21
  TRACK 87 AUDIO
    TITLE "0:"
    INDEX 01 01:12:34
  TRACK 88 AUDIO
    TITLE "2:cjc153_2295"
    INDEX 01 01:12:73
  TRACK 89 AUDIO
    TITLE "0:"
    INDEX 01 01:14:04
  TRACK 90 AUDIO
    TITLE "3:cjc153_2296"
    INDEX 01 01:14:35
  TRACK 91 AUDIO
    TITLE "0:"
    INDEX 01 01:15:48
  TRACK 92 AUDIO
    TITLE "2:cjc153_2297"
    INDEX 01 01:16:20
  TRACK 93 AUDIO
    TITLE "0:"
    INDEX 01 01:17:35
  TRACK 94 AUDIO
    TITLE "3:cjc153_2298"
    INDEX 01 01:17:69
  TRACK 95 AUDIO
    TITLE "0:"
    INDEX 01 01:19:17
  TRACK 96 AUDIO
    TITLE "2:cjc153_2299"
    INDEX 01 01:19:64
  TRACK 97 AUDIO
    TITLE "0:"
    INDEX 01 01:20:71
  TRACK 98 AUDIO
    TITLE "3:cjc153_2300"
    INDEX 01 01:21:29
  TRACK 99 AUDIO
    TITLE "0:"
    INDEX 01 01:22:44
  TRACK 100 AUDIO
    TITLE "2:cjc153_2301"
    INDEX 01 01:23:15
  TRACK 101 AUDIO
    TITLE "0:"
    INDEX 01 01:24:08
  TRACK 102 AUDIO
    TITLE "3:cjc153_2302"
    INDEX 01 01:24:43
  TRACK 103 AUDIO
    TITLE "0:"
    INDEX 01 01:25:43
  TRACK 104 AUDIO
    TITLE "2:cjc153_2303"
    INDEX 01 01:26:15
  TRACK 105 AUDIO
    TITLE "0:"
    INDEX 01 01:27:18
  TRACK 106 AUDIO
    TITLE "3:cjc153_2304"
    INDEX 01 01:27:50
  TRACK 107 AUDIO
    TITLE "0:"
    INDEX 01 01:28:53
  TRACK 108 AUDIO
    TITLE "2:cjc153_2305"
    INDEX 01 01:29:23
  TRACK 109 AUDIO
    TITLE "0:"
    INDEX 01 01:30:20
  TRACK 110 AUDIO
    TITLE "3:cjc153_2306"
    INDEX 01 01:30:52
  TRACK 111 AUDIO
    TITLE "0:"
    INDEX 01 01:31:53
  TRACK 112 AUDIO
    TITLE "2:cjc153_2307"
    INDEX 01 01:32:25
  TRACK 113 AUDIO
    TITLE "0:"
    INDEX 01 01:33:25
  TRACK 114 AUDIO
    TITLE "3:cjc153_2308"
    INDEX 01 01:33:58
  TRACK 115 AUDIO
    TITLE "0:"
    INDEX 01 01:34:63
  TRACK 116 AUDIO
    TITLE "2:cjc153_2309"
    INDEX 01 01:35:31
  TRACK 117 AUDIO
    TITLE "0:"
    INDEX 01 01:36:31
  TRACK 118 AUDIO
    TITLE "3:cjc153_2310"
    INDEX 01 01:36:64
  TRACK 119 AUDIO
    TITLE "0:"
    INDEX 01 01:37:71
  TRACK 120 AUDIO
    TITLE "2:cjc153_2311"
    INDEX 01 01:38:42
  TRACK 121 AUDIO
    TITLE "0:"
    INDEX 01 01:39:43
  TRACK 122 AUDIO
    TITLE "3:cjc153_2312"
    INDEX 01 01:40:01
  TRACK 123 AUDIO
    TITLE "0:"
    INDEX 01 01:41:12
  TRACK 124 AUDIO
    TITLE "2:cjc153_2313"
    INDEX 01 01:41:56
  TRACK 125 AUDIO
    TITLE "0:"
    INDEX 01 01:42:71
  TRACK 126 AUDIO
    TITLE "3:cjc153_2314"
    INDEX 01 01:43:29
  TRACK 127 AUDIO
    TITLE "0:"
    INDEX 01 01:44:46
  TRACK 128 AUDIO
    TITLE "2:cjc153_2315"
    INDEX 01 01:45:18
  TRACK 129 AUDIO
    TITLE "0:"
    INDEX 01 01:46:29
  TRACK 130 AUDIO
    TITLE "3:cjc153_2316"
    INDEX 01 01:46:61
  TRACK 131 AUDIO
    TITLE "0:"
    INDEX 01 01:47:70
  TRACK 132 AUDIO
    TITLE "2:cjc153_2317"
    INDEX 01 01:48:42
  TRACK 133 AUDIO
    TITLE "0:"
    INDEX 01 01:49:39
  TRACK 134 AUDIO
    TITLE "3:cjc153_2318"
    INDEX 01 01:49:73
  TRACK 135 AUDIO
    TITLE "0:"
    INDEX 01 01:51:05
  TRACK 136 AUDIO
    TITLE "2:cjc153_2319"
    INDEX 01 01:51:48
  TRACK 137 AUDIO
    TITLE "0:"
    INDEX 01 01:52:57
  TRACK 138 AUDIO
    TITLE "3:cjc153_2320"
    INDEX 01 01:53:14
  TRACK 139 AUDIO
    TITLE "0:"
    INDEX 01 01:54:23
  TRACK 140 AUDIO
    TITLE "2:cjc153_2321"
    INDEX 01 01:54:68
  TRACK 141 AUDIO
    TITLE "0:"
    INDEX 01 01:55:71
  TRACK 142 AUDIO
    TITLE "3:cjc153_2322"
    INDEX 01 01:56:28
  TRACK 143 AUDIO
    TITLE "0:"
    INDEX 01 01:57:37
  TRACK 144 AUDIO
    TITLE "2:cjc153_2323"
    INDEX 01 01:58:09
  TRACK 145 AUDIO
    TITLE "0:"
    INDEX 01 01:59:10
  TRACK 146 AUDIO
    TITLE "3:cjc153_2324"
    INDEX 01 01:59:44
  TRACK 147 AUDIO
    TITLE "0:"
    INDEX 01 02:00:47
  TRACK 148 AUDIO
    TITLE "2:cjc153_2325"
    INDEX 01 02:01:19
  TRACK 149 AUDIO
    TITLE "0:"
    INDEX 01 02:02:20
  TRACK 150 AUDIO
    TITLE "3:cjc153_2326"
    INDEX 01 02:02:54
  TRACK 151 AUDIO
    TITLE "0:"
    INDEX 01 02:03:59
  TRACK 152 AUDIO
    TITLE "2:cjc153_2327"
    INDEX 01 02:04:29
  TRACK 153 AUDIO
    TITLE "0:"
    INDEX 01 02:05:36
  TRACK 154 AUDIO
    TITLE "3:cjc153_2328"
    INDEX 01 02:05:68
  TRACK 155 AUDIO
    TITLE "0:"
    INDEX 01 02:07:08
  TRACK 156 AUDIO
    TITLE "2:cjc153_2329"
    INDEX 01 02:07:51
  TRACK 157 AUDIO
    TITLE "0:"
    INDEX 01 02:08:70
  TRACK 158 AUDIO
    TITLE "3:cjc153_2330"
    INDEX 01 02:09:28
  TRACK 159 AUDIO
    TITLE "0:"
    INDEX 01 02:10:55
